<svg width="256" height="200" viewBox="0 0 264 200" fill="none" xmlns="http://www.w3.org/2000/svg">
<g filter="url(#filter0_dd_9_121)">
<path d="M4 0H123.281V101.188C123.281 110.025 116.117 117.188 107.281 117.188H4V0Z" fill="#0C1E28"/>
<path d="M4 0H31.1274V117.097H4V0Z" fill="#D9D9D9"/>
<path d="M4 0H15.9048V117.097H4V0Z" fill="#0C1E28"/>
<rect x="37.4823" y="65.5695" width="52.108" height="2.53709" rx="1.26855" fill="#EFFC59"/>
<rect x="37.4822" y="98.3565" width="52.1079" height="2.53709" rx="1.26855" fill="#59FC69"/>
<rect x="47.8258" y="89.7694" width="52.108" height="2.53709" rx="1.26855" fill="#FC8059"/>
<rect x="60.1209" y="81.1823" width="52.108" height="2.53709" rx="1.26855" fill="#FC5994"/>
<rect x="47.8258" y="72.5952" width="52.108" height="2.53709" rx="1.26855" fill="#59F2FC"/>
<rect x="37.4823" y="19.5313" width="52.108" height="2.53709" rx="1.26855" fill="#EFFC59"/>
<rect x="37.4822" y="52.3184" width="52.1079" height="2.53709" rx="1.26855" fill="#59FC69"/>
<rect x="47.8258" y="43.7313" width="52.108" height="2.53709" rx="1.26855" fill="#FC8059"/>
<rect x="60.1209" y="35.1442" width="52.108" height="2.53709" rx="1.26855" fill="#FC5994"/>
<rect x="47.8258" y="26.5571" width="52.108" height="2.53709" rx="1.26855" fill="#59F2FC"/>
<rect x="8.4353" y="12.4746" width="2.36236" height="3.0229" stroke="white" stroke-width="0.5"/>
<rect x="9.86658" y="10.7132" width="2.36236" height="3.0229" fill="#0C1E28" stroke="white" stroke-width="0.5"/>
<path d="M12.2288 20.0402C12.2288 21.036 11.5743 21.7558 10.8647 21.7558C10.1552 21.7558 9.50061 21.036 9.50061 20.0402C9.50061 19.0443 10.1552 18.3245 10.8647 18.3245C11.5743 18.3245 12.2288 19.0443 12.2288 20.0402Z" stroke="white" stroke-width="0.5"/>
<line y1="-0.25" x2="2.62482" y2="-0.25" transform="matrix(-0.627241 0.778825 -0.64196 -0.766738 9.83179 21.4948)" stroke="white" stroke-width="0.5"/>
<path d="M8.4353 30.4553H9.96908V32.2491C9.10229 32.1275 8.4353 31.383 8.4353 30.4827V30.4553Z" stroke="white" stroke-width="0.5"/>
<rect x="10.6951" y="27.8874" width="1.53378" height="1.81112" rx="0.766891" stroke="white" stroke-width="0.5"/>
<path d="M8.4353 29.9279C8.4353 29.0276 9.10229 28.2831 9.96908 28.1615V29.9553H8.4353V29.9279Z" stroke="white" stroke-width="0.5"/>
<path d="M10.4691 30.4553H12.0029V30.4827C12.0029 31.383 11.3359 32.1275 10.4691 32.2491V30.4553Z" stroke="white" stroke-width="0.5"/>
<rect x="18.6486" y="11.1608" width="9.75804" height="0.975804" rx="0.487902" fill="#999999"/>
<rect x="18.6486" y="22.8704" width="9.75804" height="0.975805" rx="0.487903" fill="#999999"/>
<rect x="18.6486" y="19.943" width="9.75804" height="0.975805" rx="0.487903" fill="#999999"/>
<rect x="18.6486" y="17.0156" width="9.75804" height="0.975803" rx="0.487902" fill="#999999"/>
<rect x="18.6486" y="14.0882" width="9.75804" height="0.975804" rx="0.487902" fill="#999999"/>
<g filter="url(#filter1_d_9_121)">
<path d="M4 0H123.281V7.22095H4V0Z" fill="#8C8C8C"/>
</g>
<ellipse cx="116.49" cy="3.60435" rx="2.18681" ry="2.14677" fill="#D9D9D9"/>
<ellipse cx="102.972" cy="3.60435" rx="2.18681" ry="2.14677" fill="#D9D9D9"/>
<ellipse cx="109.731" cy="3.60435" rx="2.18681" ry="2.14677" fill="#D9D9D9"/>
</g>
<g filter="url(#filter2_dd_9_121)">
<path d="M140.719 16.0436H260V117.232C260 126.068 252.837 133.232 244 133.232H140.719V16.0436Z" fill="#0C1E28"/>
<path d="M140.719 16.0436H167.847V133.14H140.719V16.0436Z" fill="#D9D9D9"/>
<path d="M140.719 16.0436H152.624V133.14H140.719V16.0436Z" fill="#0C1E28"/>
<rect x="174.202" y="81.613" width="52.108" height="2.53709" rx="1.26855" fill="#EFFC59"/>
<rect x="174.202" y="114.4" width="52.1079" height="2.53709" rx="1.26855" fill="#59FC69"/>
<rect x="184.545" y="105.813" width="52.108" height="2.53709" rx="1.26855" fill="#FC8059"/>
<rect x="196.84" y="97.2259" width="52.108" height="2.53709" rx="1.26855" fill="#FC5994"/>
<rect x="184.545" y="88.6388" width="52.108" height="2.53709" rx="1.26855" fill="#59F2FC"/>
<rect x="174.202" y="35.5749" width="52.108" height="2.53709" rx="1.26855" fill="#EFFC59"/>
<rect x="174.202" y="68.3619" width="52.1079" height="2.53709" rx="1.26855" fill="#59FC69"/>
<rect x="184.545" y="59.7748" width="52.108" height="2.53709" rx="1.26855" fill="#FC8059"/>
<rect x="196.84" y="51.1877" width="52.108" height="2.53709" rx="1.26855" fill="#FC5994"/>
<rect x="184.545" y="42.6007" width="52.108" height="2.53709" rx="1.26855" fill="#59F2FC"/>
<rect x="145.155" y="28.5182" width="2.36236" height="3.0229" stroke="white" stroke-width="0.5"/>
<rect x="146.586" y="26.7568" width="2.36236" height="3.0229" fill="#0C1E28" stroke="white" stroke-width="0.5"/>
<path d="M148.948 36.0838C148.948 37.0796 148.294 37.7994 147.584 37.7994C146.875 37.7994 146.22 37.0796 146.22 36.0838C146.22 35.0879 146.875 34.3681 147.584 34.3681C148.294 34.3681 148.948 35.0879 148.948 36.0838Z" stroke="white" stroke-width="0.5"/>
<line y1="-0.25" x2="2.62482" y2="-0.25" transform="matrix(-0.627241 0.778825 -0.64196 -0.766738 146.551 37.5383)" stroke="white" stroke-width="0.5"/>
<path d="M145.155 46.4989H146.688V48.2926C145.822 48.1711 145.155 47.4265 145.155 46.5262V46.4989Z" stroke="white" stroke-width="0.5"/>
<rect x="147.414" y="43.931" width="1.53378" height="1.81112" rx="0.766891" stroke="white" stroke-width="0.5"/>
<path d="M145.155 45.9715C145.155 45.0712 145.822 44.3267 146.688 44.2051V45.9989H145.155V45.9715Z" stroke="white" stroke-width="0.5"/>
<path d="M147.188 46.4989H148.722V46.5262C148.722 47.4265 148.055 48.1711 147.188 48.2926V46.4989Z" stroke="white" stroke-width="0.5"/>
<rect x="155.368" y="27.2043" width="9.75804" height="0.975804" rx="0.487902" fill="#999999"/>
<rect x="155.368" y="38.914" width="9.75804" height="0.975805" rx="0.487903" fill="#999999"/>
<rect x="155.368" y="35.9866" width="9.75804" height="0.975805" rx="0.487903" fill="#999999"/>
<rect x="155.368" y="33.0592" width="9.75804" height="0.975803" rx="0.487902" fill="#999999"/>
<rect x="155.368" y="30.1318" width="9.75804" height="0.975804" rx="0.487902" fill="#999999"/>
<g filter="url(#filter3_d_9_121)">
<path d="M140.719 16.0436H260V23.2645H140.719V16.0436Z" fill="#8C8C8C"/>
</g>
<ellipse cx="253.21" cy="19.6479" rx="2.18681" ry="2.14677" fill="#D9D9D9"/>
<ellipse cx="239.691" cy="19.6479" rx="2.18681" ry="2.14677" fill="#D9D9D9"/>
<ellipse cx="246.45" cy="19.6479" rx="2.18681" ry="2.14677" fill="#D9D9D9"/>
</g>
<g filter="url(#filter4_dd_9_121)">
<path d="M63.2916 74.6376H182.572V175.826C182.572 184.662 175.409 191.826 166.572 191.826H63.2916V74.6376Z" fill="#0C1E28"/>
<path d="M63.2916 74.6376H90.4189V191.734H63.2916V74.6376Z" fill="#D9D9D9"/>
<path d="M63.2916 74.6376H75.1964V191.734H63.2916V74.6376Z" fill="#0C1E28"/>
<rect x="96.7739" y="140.207" width="52.108" height="2.53709" rx="1.26855" fill="#EFFC59"/>
<rect x="96.7738" y="172.994" width="52.1079" height="2.53709" rx="1.26855" fill="#59FC69"/>
<rect x="107.117" y="164.407" width="52.108" height="2.53709" rx="1.26855" fill="#FC8059"/>
<rect x="119.412" y="155.82" width="52.108" height="2.53709" rx="1.26855" fill="#FC5994"/>
<rect x="107.117" y="147.233" width="52.108" height="2.53709" rx="1.26855" fill="#59F2FC"/>
<rect x="96.7739" y="94.1689" width="52.108" height="2.53709" rx="1.26855" fill="#EFFC59"/>
<rect x="96.7738" y="126.956" width="52.1079" height="2.53709" rx="1.26855" fill="#59FC69"/>
<rect x="107.117" y="118.369" width="52.108" height="2.53709" rx="1.26855" fill="#FC8059"/>
<rect x="119.412" y="109.782" width="52.108" height="2.53709" rx="1.26855" fill="#FC5994"/>
<rect x="107.117" y="101.195" width="52.108" height="2.53709" rx="1.26855" fill="#59F2FC"/>
<rect x="67.7269" y="87.1122" width="2.36236" height="3.0229" stroke="white" stroke-width="0.5"/>
<rect x="69.1581" y="85.3508" width="2.36236" height="3.0229" fill="#0C1E28" stroke="white" stroke-width="0.5"/>
<path d="M71.5204 94.6777C71.5204 95.6736 70.8659 96.3934 70.1563 96.3934C69.4467 96.3934 68.7922 95.6736 68.7922 94.6777C68.7922 93.6819 69.4467 92.9621 70.1563 92.9621C70.8659 92.9621 71.5204 93.6819 71.5204 94.6777Z" stroke="white" stroke-width="0.5"/>
<line y1="-0.25" x2="2.62482" y2="-0.25" transform="matrix(-0.627241 0.778825 -0.64196 -0.766738 69.1233 96.1323)" stroke="white" stroke-width="0.5"/>
<path d="M67.7269 105.093H69.2606V106.887C68.3939 106.765 67.7269 106.021 67.7269 105.12V105.093Z" stroke="white" stroke-width="0.5"/>
<rect x="69.9866" y="102.525" width="1.53378" height="1.81112" rx="0.766891" stroke="white" stroke-width="0.5"/>
<path d="M67.7269 104.566C67.7269 103.665 68.3939 102.921 69.2606 102.799V104.593H67.7269V104.566Z" stroke="white" stroke-width="0.5"/>
<path d="M69.7607 105.093H71.2945V105.12C71.2945 106.021 70.6275 106.765 69.7607 106.887V105.093Z" stroke="white" stroke-width="0.5"/>
<rect x="77.9401" y="85.7983" width="9.75804" height="0.975804" rx="0.487902" fill="#999999"/>
<rect x="77.94" y="97.508" width="9.75804" height="0.975805" rx="0.487903" fill="#999999"/>
<rect x="77.94" y="94.5806" width="9.75804" height="0.975805" rx="0.487903" fill="#999999"/>
<rect x="77.94" y="91.6532" width="9.75804" height="0.975803" rx="0.487902" fill="#999999"/>
<rect x="77.94" y="88.7258" width="9.75804" height="0.975804" rx="0.487902" fill="#999999"/>
<g filter="url(#filter5_d_9_121)">
<path d="M63.2916 74.6376H182.572V81.8585H63.2916V74.6376Z" fill="#8C8C8C"/>
</g>
<ellipse cx="175.782" cy="78.2419" rx="2.18681" ry="2.14677" fill="#D9D9D9"/>
<ellipse cx="162.263" cy="78.2419" rx="2.18681" ry="2.14677" fill="#D9D9D9"/>
<ellipse cx="169.023" cy="78.2419" rx="2.18681" ry="2.14677" fill="#D9D9D9"/>
</g>
<defs>
<filter id="filter0_dd_9_121" x="0" y="0" width="127.281" height="125.188" filterUnits="userSpaceOnUse" color-interpolation-filters="sRGB">
<feFlood flood-opacity="0" result="BackgroundImageFix"/>
<feColorMatrix in="SourceAlpha" type="matrix" values="0 0 0 0 0 0 0 0 0 0 0 0 0 0 0 0 0 0 127 0" result="hardAlpha"/>
<feOffset dy="4"/>
<feGaussianBlur stdDeviation="2"/>
<feComposite in2="hardAlpha" operator="out"/>
<feColorMatrix type="matrix" values="0 0 0 0 0 0 0 0 0 0 0 0 0 0 0 0 0 0 0.25 0"/>
<feBlend mode="normal" in2="BackgroundImageFix" result="effect1_dropShadow_9_121"/>
<feColorMatrix in="SourceAlpha" type="matrix" values="0 0 0 0 0 0 0 0 0 0 0 0 0 0 0 0 0 0 127 0" result="hardAlpha"/>
<feOffset dy="4"/>
<feGaussianBlur stdDeviation="2"/>
<feComposite in2="hardAlpha" operator="out"/>
<feColorMatrix type="matrix" values="0 0 0 0 0 0 0 0 0 0 0 0 0 0 0 0 0 0 0.25 0"/>
<feBlend mode="normal" in2="effect1_dropShadow_9_121" result="effect2_dropShadow_9_121"/>
<feBlend mode="normal" in="SourceGraphic" in2="effect2_dropShadow_9_121" result="shape"/>
</filter>
<filter id="filter1_d_9_121" x="0" y="0" width="127.281" height="15.2209" filterUnits="userSpaceOnUse" color-interpolation-filters="sRGB">
<feFlood flood-opacity="0" result="BackgroundImageFix"/>
<feColorMatrix in="SourceAlpha" type="matrix" values="0 0 0 0 0 0 0 0 0 0 0 0 0 0 0 0 0 0 127 0" result="hardAlpha"/>
<feOffset dy="4"/>
<feGaussianBlur stdDeviation="2"/>
<feComposite in2="hardAlpha" operator="out"/>
<feColorMatrix type="matrix" values="0 0 0 0 0 0 0 0 0 0 0 0 0 0 0 0 0 0 0.25 0"/>
<feBlend mode="normal" in2="BackgroundImageFix" result="effect1_dropShadow_9_121"/>
<feBlend mode="normal" in="SourceGraphic" in2="effect1_dropShadow_9_121" result="shape"/>
</filter>
<filter id="filter2_dd_9_121" x="136.719" y="16.0436" width="127.281" height="125.188" filterUnits="userSpaceOnUse" color-interpolation-filters="sRGB">
<feFlood flood-opacity="0" result="BackgroundImageFix"/>
<feColorMatrix in="SourceAlpha" type="matrix" values="0 0 0 0 0 0 0 0 0 0 0 0 0 0 0 0 0 0 127 0" result="hardAlpha"/>
<feOffset dy="4"/>
<feGaussianBlur stdDeviation="2"/>
<feComposite in2="hardAlpha" operator="out"/>
<feColorMatrix type="matrix" values="0 0 0 0 0 0 0 0 0 0 0 0 0 0 0 0 0 0 0.25 0"/>
<feBlend mode="normal" in2="BackgroundImageFix" result="effect1_dropShadow_9_121"/>
<feColorMatrix in="SourceAlpha" type="matrix" values="0 0 0 0 0 0 0 0 0 0 0 0 0 0 0 0 0 0 127 0" result="hardAlpha"/>
<feOffset dy="4"/>
<feGaussianBlur stdDeviation="2"/>
<feComposite in2="hardAlpha" operator="out"/>
<feColorMatrix type="matrix" values="0 0 0 0 0 0 0 0 0 0 0 0 0 0 0 0 0 0 0.25 0"/>
<feBlend mode="normal" in2="effect1_dropShadow_9_121" result="effect2_dropShadow_9_121"/>
<feBlend mode="normal" in="SourceGraphic" in2="effect2_dropShadow_9_121" result="shape"/>
</filter>
<filter id="filter3_d_9_121" x="136.719" y="16.0436" width="127.281" height="15.2209" filterUnits="userSpaceOnUse" color-interpolation-filters="sRGB">
<feFlood flood-opacity="0" result="BackgroundImageFix"/>
<feColorMatrix in="SourceAlpha" type="matrix" values="0 0 0 0 0 0 0 0 0 0 0 0 0 0 0 0 0 0 127 0" result="hardAlpha"/>
<feOffset dy="4"/>
<feGaussianBlur stdDeviation="2"/>
<feComposite in2="hardAlpha" operator="out"/>
<feColorMatrix type="matrix" values="0 0 0 0 0 0 0 0 0 0 0 0 0 0 0 0 0 0 0.25 0"/>
<feBlend mode="normal" in2="BackgroundImageFix" result="effect1_dropShadow_9_121"/>
<feBlend mode="normal" in="SourceGraphic" in2="effect1_dropShadow_9_121" result="shape"/>
</filter>
<filter id="filter4_dd_9_121" x="59.2916" y="74.6376" width="127.281" height="125.188" filterUnits="userSpaceOnUse" color-interpolation-filters="sRGB">
<feFlood flood-opacity="0" result="BackgroundImageFix"/>
<feColorMatrix in="SourceAlpha" type="matrix" values="0 0 0 0 0 0 0 0 0 0 0 0 0 0 0 0 0 0 127 0" result="hardAlpha"/>
<feOffset dy="4"/>
<feGaussianBlur stdDeviation="2"/>
<feComposite in2="hardAlpha" operator="out"/>
<feColorMatrix type="matrix" values="0 0 0 0 0 0 0 0 0 0 0 0 0 0 0 0 0 0 0.25 0"/>
<feBlend mode="normal" in2="BackgroundImageFix" result="effect1_dropShadow_9_121"/>
<feColorMatrix in="SourceAlpha" type="matrix" values="0 0 0 0 0 0 0 0 0 0 0 0 0 0 0 0 0 0 127 0" result="hardAlpha"/>
<feOffset dy="4"/>
<feGaussianBlur stdDeviation="2"/>
<feComposite in2="hardAlpha" operator="out"/>
<feColorMatrix type="matrix" values="0 0 0 0 0 0 0 0 0 0 0 0 0 0 0 0 0 0 0.25 0"/>
<feBlend mode="normal" in2="effect1_dropShadow_9_121" result="effect2_dropShadow_9_121"/>
<feBlend mode="normal" in="SourceGraphic" in2="effect2_dropShadow_9_121" result="shape"/>
</filter>
<filter id="filter5_d_9_121" x="59.2916" y="74.6376" width="127.281" height="15.2209" filterUnits="userSpaceOnUse" color-interpolation-filters="sRGB">
<feFlood flood-opacity="0" result="BackgroundImageFix"/>
<feColorMatrix in="SourceAlpha" type="matrix" values="0 0 0 0 0 0 0 0 0 0 0 0 0 0 0 0 0 0 127 0" result="hardAlpha"/>
<feOffset dy="4"/>
<feGaussianBlur stdDeviation="2"/>
<feComposite in2="hardAlpha" operator="out"/>
<feColorMatrix type="matrix" values="0 0 0 0 0 0 0 0 0 0 0 0 0 0 0 0 0 0 0.25 0"/>
<feBlend mode="normal" in2="BackgroundImageFix" result="effect1_dropShadow_9_121"/>
<feBlend mode="normal" in="SourceGraphic" in2="effect1_dropShadow_9_121" result="shape"/>
</filter>
</defs>
</svg>
