<svg width="2949" height="3073" viewBox="0 0 2949 3073" fill="none" xmlns="http://www.w3.org/2000/svg">
<rect width="2949" height="3073" rx="1336" fill="#2B47D8" fill-opacity="0.5"/>
<path d="M663.339 828.749C650.498 843.197 651.801 865.32 666.249 878.161C680.697 891.002 702.82 889.699 715.661 875.251L663.339 828.749ZM715.661 875.251C893.948 674.653 1149.45 551 1441.06 551V481C1128.82 481 854.482 613.687 663.339 828.749L715.661 875.251ZM1441.06 551C1733.11 551 1994.99 678.051 2173.31 879.217L2225.69 832.783C2034.54 617.148 1753.82 481 1441.06 481V551Z" fill="black"/>
<path d="M775.495 1036.17C783.32 1053.84 803.992 1061.83 821.667 1054C839.343 1046.18 847.329 1025.51 839.505 1007.83L775.495 1036.17ZM498 818L486.278 785.021L486.278 785.021L498 818ZM135 1405L170 1405L135 1405ZM394.5 1631.5L390.092 1666.22L390.092 1666.22L394.5 1631.5ZM854.5 1576.5L885.289 1593.14C893.256 1578.41 889.662 1560.09 876.717 1549.46C863.772 1538.82 845.106 1538.85 832.196 1549.53L854.5 1576.5ZM973.627 1776.94C992.921 1775.76 1007.61 1759.17 1006.44 1739.87C1005.26 1720.58 988.667 1705.89 969.373 1707.06L973.627 1776.94ZM839.505 1007.83C822.575 969.587 785.121 898.806 728.036 844.82C670.14 790.068 587.442 749.062 486.278 785.021L509.722 850.979C577.358 826.937 633.327 851.599 679.939 895.68C727.362 940.528 760.259 1001.75 775.495 1036.17L839.505 1007.83ZM486.278 785.021C369.872 826.398 273.616 929.107 207.068 1044.3C140.321 1159.85 100 1293.84 100 1405L170 1405C170 1308.66 205.679 1186.65 267.682 1079.32C329.884 971.643 415.128 884.602 509.722 850.979L486.278 785.021ZM100 1405C100 1478.61 143.949 1540.53 198.665 1584.21C253.704 1628.14 324.581 1657.9 390.092 1666.22L398.908 1596.78C346.419 1590.11 287.546 1565.59 242.335 1529.5C196.801 1493.15 170 1449.32 170 1405L100 1405ZM390.092 1666.22C646.837 1698.82 786.512 1678.14 876.804 1603.47L832.196 1549.53C766.487 1603.86 654.163 1629.18 398.908 1596.78L390.092 1666.22ZM823.711 1559.85C814.315 1577.24 805.572 1598.91 800.892 1621.96C796.257 1644.78 795.145 1671.29 803.733 1696.68C812.713 1723.22 831.493 1745.96 861.415 1760.41C890.22 1774.32 927.515 1779.74 973.627 1776.94L969.373 1707.06C930.085 1709.46 906.034 1704.22 891.862 1697.38C878.808 1691.07 872.983 1682.94 870.042 1674.25C866.709 1664.4 866.362 1651.3 869.492 1635.89C872.577 1620.7 878.601 1605.51 885.289 1593.14L823.711 1559.85Z" fill="black"/>
<path d="M812 1162C800 1105.67 648 991.502 525 1002.5C427.378 1011.23 277.5 1214 346 1377.5C414.5 1541 652.408 1514.64 721 1397C807 1249.5 681.5 1011 525 1270" stroke="black" stroke-width="70" stroke-linecap="round"/>
<path d="M2078 1025.5C2110.17 952.833 2214.2 758.589 2383 818.589C2594 893.589 2746 1198.09 2746 1405.59C2746 1523.51 2742.5 1599.59 2486.5 1632.09C2230.5 1664.59 2104.5 1641.59 2026.5 1577.09C2058.67 1636.59 2080.3 1752.99 1909.5 1742.59" stroke="black" stroke-width="70" stroke-linecap="round" stroke-linejoin="round"/>
<path d="M2069.5 1162.24C2081.5 1105.91 2233.5 991.743 2356.5 1002.74C2454.12 1011.47 2604 1214.24 2535.5 1377.74C2467 1541.24 2229.09 1514.88 2160.5 1397.24C2074.5 1249.74 2200 1011.24 2356.5 1270.24" stroke="black" stroke-width="70" stroke-linecap="round"/>
<path d="M1072.69 1527C995.442 1636.75 948.5 1781.43 948.5 1940C948.5 2282.97 1168.1 2561 1439 2561C1709.9 2561 1929.5 2282.97 1929.5 1940C1929.5 1781.43 1882.56 1636.75 1805.31 1527" stroke="black" stroke-width="70" stroke-linecap="round"/>
<path d="M967.802 1942.8C951.677 1932.14 929.964 1936.57 919.304 1952.7C908.643 1968.82 913.073 1990.54 929.198 2001.2L967.802 1942.8ZM948.5 1972C929.198 2001.2 929.213 2001.21 929.228 2001.22C929.233 2001.22 929.249 2001.23 929.261 2001.24C929.284 2001.25 929.31 2001.27 929.338 2001.29C929.394 2001.33 929.46 2001.37 929.535 2001.42C929.685 2001.51 929.874 2001.64 930.101 2001.78C930.555 2002.07 931.162 2002.46 931.923 2002.93C933.445 2003.86 935.582 2005.15 938.338 2006.73C943.851 2009.9 951.842 2014.25 962.346 2019.38C983.357 2029.65 1014.41 2043.04 1055.78 2056.32C1138.58 2082.91 1262.44 2109 1429.51 2109V2039C1269.86 2039 1153.21 2014.09 1077.18 1989.68C1039.15 1977.46 1011.21 1965.35 993.079 1956.49C984.013 1952.06 977.398 1948.44 973.197 1946.03C971.096 1944.83 969.6 1943.92 968.702 1943.37C968.253 1943.09 967.954 1942.9 967.804 1942.8C967.729 1942.76 967.692 1942.73 967.691 1942.73C967.691 1942.73 967.7 1942.74 967.719 1942.75C967.728 1942.75 967.74 1942.76 967.753 1942.77C967.76 1942.78 967.772 1942.78 967.776 1942.79C967.789 1942.79 967.802 1942.8 948.5 1972ZM1429.51 2109C1596.57 2109 1724.98 2082.92 1812.18 2056.5C1855.76 2043.29 1889.02 2030.01 1911.63 2019.88C1922.94 2014.81 1931.59 2010.54 1937.54 2007.45C1940.51 2005.91 1942.81 2004.66 1944.43 2003.76C1945.24 2003.31 1945.88 2002.95 1946.36 2002.68C1946.59 2002.55 1946.78 2002.44 1946.93 2002.35C1947.01 2002.31 1947.07 2002.27 1947.13 2002.24C1947.15 2002.22 1947.18 2002.21 1947.2 2002.19C1947.21 2002.19 1947.22 2002.18 1947.23 2002.18C1947.24 2002.17 1947.26 2002.16 1929.5 1972C1911.74 1941.84 1911.76 1941.83 1911.77 1941.83C1911.77 1941.82 1911.78 1941.82 1911.78 1941.81C1911.8 1941.81 1911.8 1941.8 1911.81 1941.8C1911.82 1941.79 1911.82 1941.79 1911.81 1941.8C1911.79 1941.81 1911.73 1941.84 1911.63 1941.9C1911.43 1942.02 1911.05 1942.23 1910.52 1942.53C1909.44 1943.12 1907.7 1944.07 1905.3 1945.32C1900.5 1947.81 1893.06 1951.5 1883.01 1956C1862.93 1964.99 1832.45 1977.21 1791.88 1989.5C1710.76 2014.08 1589.18 2039 1429.51 2039V2109Z" fill="black"/>
<path d="M1449.5 1672.92L1451.5 1931.92" stroke="black" stroke-width="70" stroke-linecap="round"/>
<circle cx="1111" cy="1083" r="289" stroke="black" stroke-width="70"/>
<circle cx="1771" cy="1083" r="289" stroke="black" stroke-width="70"/>
<path d="M1400 1002H1462.7M1407.3 1089H1470" stroke="black" stroke-width="70"/>
<path d="M1195.52 1527.44C1177.52 1505.78 1159.62 1457.04 1232.02 1435.44C1322.52 1408.44 1424.02 1449.94 1441.52 1506.94" stroke="black" stroke-width="70" stroke-linecap="round"/>
<path d="M1687.5 1527.44C1705.5 1505.78 1723.4 1457.04 1651 1435.44C1560.5 1408.44 1459 1449.94 1441.5 1506.94" stroke="black" stroke-width="70" stroke-linecap="round"/>
<path d="M1340.26 1523.67C1341.42 1526.16 1342.62 1532.83 1338.36 1543.71C1333.91 1555.07 1326.45 1563.03 1321.78 1565.68C1315.18 1569.43 1300.38 1568.5 1291.42 1552.71C1284.04 1539.72 1280.26 1528.91 1279.68 1522.1C1279.64 1521.59 1279.62 1521.14 1279.61 1520.77C1285.49 1518.18 1299.7 1515.24 1316.29 1516.71C1324.61 1517.44 1331.36 1519.14 1335.95 1521.17C1338.67 1522.37 1339.88 1523.32 1340.26 1523.67Z" stroke="black" stroke-width="70"/>
<path d="M1535.76 1524.04C1534.6 1526.53 1533.41 1533.2 1537.67 1544.07C1542.12 1555.44 1549.58 1563.4 1554.25 1566.05C1560.85 1569.79 1575.65 1568.87 1584.61 1553.08C1591.99 1540.08 1595.76 1529.28 1596.35 1522.47C1596.39 1521.95 1596.41 1521.51 1596.42 1521.13C1590.53 1518.55 1576.32 1515.6 1559.73 1517.07C1551.42 1517.81 1544.67 1519.51 1540.08 1521.53C1537.35 1522.73 1536.15 1523.69 1535.76 1524.04Z" stroke="black" stroke-width="70"/>
</svg>
